<svg width="58" height="58" viewBox="0 0 58 58" fill="none" xmlns="http://www.w3.org/2000/svg">
<g clip-path="url(#clip0_287_138)">
<path d="M10.9499 18.0499C11.5319 17.468 12.4736 17.4624 13.0624 18.0375C13.661 18.6221 13.6666 19.5832 13.0749 20.1749L5.75 27.4998L56.5 27.4998C57.3284 27.4998 58 28.1714 58 28.9998C58 29.8282 57.3284 30.4998 56.5 30.4998L5.75 30.4998L13.1249 37.8747C13.7166 38.4664 13.711 39.4275 13.1124 40.0122C12.5236 40.5872 11.5819 40.5817 10.9999 39.9997L1.5813 30.5811C0.707972 29.7078 0.707969 28.2918 1.5813 27.4185L10.9499 18.0499Z" fill="#EAEAEA"/>
</g>
<defs>
<clipPath id="clip0_287_138">
<rect width="58" height="58" fill="white"/>
</clipPath>
</defs>
</svg>
