<svg width="40" height="40" viewBox="0 0 40 40" fill="none" xmlns="http://www.w3.org/2000/svg">
<mask id="mask0_2045_266" style="mask-type:alpha" maskUnits="userSpaceOnUse" x="0" y="0" width="40" height="40">
<rect width="40" height="40" fill="#D9D9D9"/>
</mask>
<g mask="url(#mask0_2045_266)">
<path d="M18.6114 21.3889H9.72224C8.95526 21.3889 8.3335 20.7671 8.3335 20.0002C8.3335 19.2332 8.95526 18.6114 9.72225 18.6114H18.6114V9.72224C18.6114 8.95526 19.2332 8.3335 20.0002 8.3335C20.7671 8.3335 21.3889 8.95526 21.3889 9.72225V18.6114H30.2781C31.0451 18.6114 31.6668 19.2332 31.6668 20.0002C31.6668 20.7671 31.0451 21.3889 30.2781 21.3889H21.3889V30.2781C21.3889 31.0451 20.7671 31.6668 20.0002 31.6668C19.2332 31.6668 18.6114 31.0451 18.6114 30.2781V21.3889Z" fill="#141414"/>
</g>
</svg>
