<svg width="316" height="8" viewBox="0 0 316 8" fill="none" xmlns="http://www.w3.org/2000/svg">
<path fill-rule="evenodd" clip-rule="evenodd" d="M116.516 0.43732C106.1 0.709667 93.5081 0.781843 88.5333 0.597552C73.2999 0.033611 54.1082 0.156793 41.0472 0.902138C34.207 1.29285 22.1732 1.61524 14.3052 1.61957L0 1.62679L0.17242 3.91239L0.34484 6.19799L23.5226 6.17585C36.2703 6.16382 55.3496 6.15757 65.9209 6.1619C84.8158 6.1696 91.655 6.14409 140.825 5.8833C154.35 5.81112 166.433 5.90158 167.677 6.08347C168.921 6.26535 177.061 6.53048 185.767 6.67339C194.473 6.81582 206.047 7.04101 211.488 7.17382C216.93 7.30662 242.379 7.54673 268.043 7.70744L314.705 8L315.455 4.79006C315.867 3.02462 316.095 1.48725 315.962 1.37369C315.828 1.26013 309.248 1.37466 301.338 1.62824C277.473 2.39283 174.716 1.8669 169.792 0.954586C168.425 0.701487 150.423 0.104344 141.107 0.00377796C137.998 -0.0299045 126.932 0.165454 116.516 0.43732Z" fill="#35FF90"/>
</svg>
