<?xml version="1.0" encoding="utf-8"?><svg viewBox="0 0 502.66 502.66" xmlns="http://www.w3.org/2000/svg" xmlns:xlink="http://www.w3.org/1999/xlink"><style>:root>svg{display:none}:root>svg:target{display:block}</style><svg viewBox="0 0 58 58" id="arrow_left" xmlns="http://www.w3.org/2000/svg"><g clip-path="url(#aa)"><path d="M10.95 18.05a1.503 1.503 0 0 1 2.125 2.125L5.75 27.5H56.5a1.5 1.5 0 0 1 0 3H5.75l7.375 7.375A1.503 1.503 0 1 1 11 40l-9.42-9.42a2.236 2.236 0 0 1 0-3.162l9.369-9.37Z"/></g><defs><clipPath id="aa"><path d="M0 0h58v58H0z"/></clipPath></defs></svg><svg viewBox="0 0 58 58" id="arrow_right" xmlns="http://www.w3.org/2000/svg"><path d="M47.05 39.95a1.503 1.503 0 0 1-2.125-2.125L52.25 30.5H1.5a1.5 1.5 0 0 1 0-3h50.75l-7.375-7.375A1.503 1.503 0 1 1 47 18l9.419 9.419c.873.873.873 2.29 0 3.162l-9.369 9.37Z"/></svg><svg viewBox="0 0 502.664 502.664" xml:space="preserve" id="icon" xmlns="http://www.w3.org/2000/svg"><path d="M153.821 358.226 0 274.337v-46.463l153.821-83.414v54.574L46.636 250.523l107.185 53.431v54.272zm26.273 29.358L282.103 115.08h32.227L212.084 387.584h-31.99zm168.749-29.358v-54.272l107.164-52.999-107.164-52.59v-53.927l153.821 83.522v46.183l-153.821 84.083z"/></svg><svg viewBox="0 0 40 40" id="plus" xmlns="http://www.w3.org/2000/svg"><mask id="da" maskUnits="userSpaceOnUse" x="0" y="0" width="40" height="40"><path d="M0 0h40v40H0z"/></mask><g mask="url(#da)"><path d="M18.611 21.389H9.722a1.389 1.389 0 0 1 0-2.778h8.89V9.722a1.389 1.389 0 0 1 2.777 0v8.89h8.89a1.389 1.389 0 0 1 0 2.777h-8.89v8.89a1.389 1.389 0 0 1-2.778 0v-8.89Z"/></g></svg></svg>