<svg width="262" height="81" viewBox="0 0 262 81" fill="none" xmlns="http://www.w3.org/2000/svg">
<path d="M191.865 10.0615C159.031 7.22819 83.0647 9.25977 35.8647 24.0598C-23.1353 42.5598 5.86467 72.0594 47.8647 71.5594C82.8981 71.1424 190.64 72.1169 235.865 62.8756M235.865 62.8756C244.858 61.0379 251.379 58.7964 254.365 56.0595C272.365 39.5595 246.365 3.05947 178.365 2.05947C110.365 1.05947 7.36472 12.5595 9.86472 45.0595C11.8647 71.0595 100.031 77.8928 143.865 78.0595C169.198 78.9369 220.836 78.0594 235.865 62.8756ZM235.865 62.8756C253.003 45.5609 262.865 3.66152 136.865 4.06152" stroke="#35FF90" stroke-width="4" stroke-linecap="round"/>
</svg>
