<svg xmlns="http://www.w3.org/2000/svg" width="40" height="40" viewBox="0 0 40 40" fill="none">

    <path d="M20.0001 21.9641L13.7145 28.2497C13.1722 28.7921 12.2929 28.7921 11.7506 28.2497C11.2082 27.7074 11.2082 26.8281 11.7506 26.2857L18.0361 20.0002L11.7506 13.7146C11.2082 13.1722 11.2082 12.2929 11.7506 11.7506C12.2929 11.2082 13.1722 11.2082 13.7145 11.7506L20.0001 18.0362L26.2857 11.7506C26.8281 11.2082 27.7074 11.2082 28.2497 11.7506C28.7921 12.2929 28.7921 13.1722 28.2497 13.7146L21.9641 20.0002L28.2497 26.2857C28.7921 26.8281 28.7921 27.7074 28.2497 28.2497C27.7074 28.7921 26.8281 28.7921 26.2857 28.2497L20.0001 21.9641Z" fill="#141414"/>

</svg>