<svg width="28" height="29" viewBox="0 0 28 29" fill="none" xmlns="http://www.w3.org/2000/svg">
<path d="M19.4627 7.83576L12.0081 15.2904C11.7893 15.5093 11.4925 15.6323 11.183 15.6323H9.33186C8.68726 15.6323 8.16471 15.1098 8.16471 14.4652V12.6141C8.16481 12.3042 8.28632 12.0067 8.50318 11.7854L16.7083 3.39358C17.555 2.52745 18.7131 2.0362 19.9244 2.0294C21.1356 2.0226 22.2992 2.50082 23.1556 3.3574L23.2397 3.44143C24.1143 4.30916 24.6047 5.49123 24.6012 6.72329C24.5977 7.95534 24.1006 9.1346 23.221 9.99733C20.4688 12.6923 16.6989 16.4435 14.5397 18.5981C13.4455 19.6889 11.9635 20.3012 10.4185 20.301H6.99755C5.06375 20.301 3.49609 18.7333 3.49609 16.7995V13.3809C3.49609 11.8335 4.11074 10.3494 5.20481 9.25502L12.4598 2" stroke="#00E968" stroke-width="2" stroke-linecap="round" stroke-linejoin="round"/>
</svg>
